<svg width="645" height="570" viewBox="0 0 645 570" fill="none" xmlns="http://www.w3.org/2000/svg">
<rect width="645" height="570" fill="#E5E5E5"/>
<g id="undraw_Online_information_re_erks 1" clip-path="url(#clip0)">
<path id="Vector" d="M559.995 340.901H17.6545C13.2799 340.896 9.08596 339.156 5.99268 336.063C2.8994 332.97 1.15942 328.776 1.15448 324.401V18.6016H576.495V324.401C576.49 328.776 574.75 332.97 571.656 336.063C568.563 339.156 564.369 340.896 559.995 340.901V340.901Z" fill="#E6E6E6"/>
<path id="Vector_2" d="M538.412 309.318H39.2371C36.9835 309.315 34.823 308.419 33.2295 306.825C31.636 305.232 30.7396 303.071 30.7371 300.818V58.6841C30.7396 56.4305 31.636 54.27 33.2295 52.6765C34.823 51.0829 36.9835 50.1866 39.2371 50.1841H538.412C540.665 50.1866 542.826 51.0829 544.419 52.6764C546.013 54.2699 546.909 56.4305 546.912 58.6841V300.818C546.909 303.071 546.013 305.232 544.419 306.826C542.826 308.419 540.665 309.315 538.412 309.318V309.318Z" fill="white"/>
<path id="Vector_3" d="M577.649 29.7476H0V16.5C0.00494149 12.1254 1.74492 7.93148 4.8382 4.8382C7.93148 1.74492 12.1254 0.00494149 16.5 0H561.149C565.524 0.00494149 569.718 1.74492 572.811 4.8382C575.904 7.93148 577.644 12.1254 577.649 16.5V29.7476Z" fill="#009879"/>
<path id="Vector_4" d="M157.311 216.609H68.4658C66.2123 216.606 64.0517 215.71 62.4582 214.116C60.8647 212.523 59.9684 210.362 59.9658 208.109V149.702C59.9684 147.449 60.8647 145.288 62.4582 143.695C64.0517 142.101 66.2123 141.205 68.4658 141.202H157.311C159.565 141.205 161.725 142.101 163.319 143.695C164.912 145.288 165.809 147.449 165.811 149.702V208.109C165.809 210.362 164.912 212.523 163.319 214.117C161.725 215.71 159.565 216.606 157.311 216.609V216.609Z" fill="#E6E6E6"/>
<path id="Vector_5" d="M512.955 150.658H232.24C230.987 150.658 229.784 150.16 228.897 149.273C228.011 148.386 227.513 147.184 227.513 145.93C227.513 144.676 228.011 143.474 228.897 142.587C229.784 141.7 230.987 141.202 232.24 141.202H512.955C514.209 141.202 515.412 141.7 516.298 142.587C517.185 143.474 517.683 144.676 517.683 145.93C517.683 147.184 517.185 148.386 516.298 149.273C515.412 150.16 514.209 150.658 512.955 150.658V150.658Z" fill="#E6E6E6"/>
<path id="Vector_6" d="M512.955 184.479H232.24C230.987 184.479 229.784 183.98 228.898 183.094C228.011 182.207 227.513 181.005 227.513 179.751C227.513 178.497 228.011 177.295 228.898 176.408C229.784 175.522 230.987 175.023 232.24 175.023H512.955C514.209 175.023 515.412 175.522 516.298 176.408C517.185 177.295 517.683 178.497 517.683 179.751C517.683 181.005 517.185 182.207 516.298 183.094C515.412 183.98 514.209 184.479 512.955 184.479V184.479Z" fill="#E6E6E6"/>
<path id="Vector_7" d="M512.955 218.3H232.24C230.987 218.3 229.784 217.802 228.897 216.915C228.011 216.028 227.513 214.826 227.513 213.572C227.513 212.318 228.011 211.116 228.897 210.229C229.784 209.342 230.987 208.844 232.24 208.844H512.955C514.209 208.844 515.412 209.342 516.298 210.229C517.185 211.116 517.683 212.318 517.683 213.572C517.683 214.826 517.185 216.028 516.298 216.915C515.412 217.802 514.209 218.3 512.955 218.3V218.3Z" fill="#E6E6E6"/>
<path id="Vector_8" d="M419.548 556.311H407.288L401.456 509.023H419.55L419.548 556.311Z" fill="#EE8E9E"/>
<path id="Vector_9" d="M395.887 552H419.531V566.887H381C381 564.932 381.385 562.996 382.133 561.19C382.881 559.384 383.978 557.743 385.36 556.36C386.743 554.978 388.384 553.881 390.19 553.133C391.996 552.385 393.932 552 395.887 552Z" fill="#2F2E41"/>
<path id="Vector_10" d="M470.548 556.311H458.288L452.456 509.023H470.55L470.548 556.311Z" fill="#EE8E9E"/>
<path id="Vector_11" d="M446.887 552H470.531V566.887H432C432 564.932 432.385 562.996 433.133 561.19C433.881 559.384 434.978 557.743 436.36 556.36C437.743 554.978 439.384 553.881 441.19 553.133C442.996 552.385 444.932 552 446.887 552V552Z" fill="#2F2E41"/>
<path id="Vector_12" d="M468.987 545.443H456.507C455.38 545.437 454.295 545.01 453.466 544.247C452.636 543.483 452.122 542.438 452.023 541.315L441.447 413.916C441.416 413.546 441.249 413.2 440.977 412.946C440.706 412.692 440.35 412.548 439.978 412.541C439.607 412.535 439.246 412.666 438.966 412.911C438.686 413.155 438.506 413.495 438.463 413.864L423.273 541.475C423.143 542.568 422.616 543.576 421.792 544.307C420.969 545.038 419.906 545.442 418.805 545.443H403.481C402.292 545.441 401.153 544.969 400.31 544.131C399.468 543.293 398.991 542.156 398.983 540.967C398.949 532.951 398.895 524.877 398.84 516.802C398.354 444.88 397.851 370.51 412.869 341.374L413.005 341.109L467.198 340.182L467.334 340.48C483.73 376.31 478.754 456.355 473.941 533.763L473.478 541.222C473.405 542.364 472.9 543.436 472.066 544.22C471.232 545.004 470.131 545.441 468.987 545.443V545.443Z" fill="#2F2E41"/>
<path id="Vector_13" d="M443.314 244.425C456.878 244.425 467.875 233.428 467.875 219.864C467.875 206.299 456.878 195.303 443.314 195.303C429.749 195.303 418.753 206.299 418.753 219.864C418.753 233.428 429.749 244.425 443.314 244.425Z" fill="#EE8E9E"/>
<path id="Vector_14" d="M409.829 345.623L410.505 317.463L405.633 295.492C404.402 290.051 404.474 284.397 405.843 278.989C407.211 273.581 409.838 268.574 413.508 264.373C417.079 260.194 421.588 256.918 426.666 254.813C431.743 252.707 437.247 251.832 442.728 252.258H442.728C443.082 252.285 443.436 252.315 443.792 252.347C448.475 252.769 453.025 254.129 457.17 256.346C461.316 258.564 464.973 261.593 467.923 265.254C470.935 268.936 473.175 273.186 474.508 277.752C475.842 282.317 476.243 287.105 475.687 291.828L469.793 343.345L409.829 345.623Z" fill="#009879"/>
<path id="Vector_15" d="M388.965 396.093C390.123 395.188 391.07 394.041 391.737 392.731C392.404 391.421 392.776 389.98 392.826 388.511C392.876 387.042 392.604 385.579 392.028 384.227C391.452 382.874 390.586 381.665 389.492 380.683L403.32 347.732L385.07 351.16L374.736 381.925C373.209 383.872 372.449 386.312 372.6 388.783C372.751 391.253 373.803 393.582 375.557 395.329C377.311 397.075 379.645 398.118 382.116 398.259C384.587 398.399 387.024 397.629 388.965 396.093Z" fill="#EE8E9E"/>
<path id="Vector_16" d="M493.308 400.043C492.203 399.074 491.323 397.874 490.732 396.528C490.14 395.182 489.851 393.723 489.885 392.253C489.918 390.784 490.273 389.339 490.925 388.021C491.577 386.704 492.51 385.545 493.659 384.627L481.727 350.943L499.753 355.404L508.32 386.707C509.734 388.738 510.354 391.218 510.062 393.675C509.771 396.133 508.588 398.399 506.737 400.042C504.887 401.686 502.498 402.594 500.023 402.594C497.548 402.594 495.159 401.686 493.308 400.043V400.043Z" fill="#EE8E9E"/>
<path id="Vector_17" d="M391.16 379.947C390.526 379.947 389.899 379.813 389.321 379.554L378.8 374.841C377.788 374.389 376.979 373.579 376.527 372.567C376.076 371.554 376.015 370.411 376.356 369.356L394.004 314.536L400.824 273.237C401.066 271.769 401.601 270.365 402.397 269.109C403.193 267.853 404.234 266.769 405.457 265.923C406.68 265.077 408.061 264.486 409.518 264.184C410.974 263.882 412.476 263.877 413.935 264.168C415.393 264.459 416.779 265.04 418.008 265.877C419.238 266.714 420.286 267.79 421.091 269.04C421.896 270.291 422.442 271.691 422.695 273.156C422.948 274.622 422.904 276.123 422.565 277.572L412.2 321.864L395.465 376.759C395.184 377.682 394.614 378.49 393.839 379.064C393.064 379.638 392.125 379.947 391.16 379.947V379.947Z" fill="#009879"/>
<path id="Vector_18" d="M491.522 379.947C490.558 379.947 489.619 379.638 488.844 379.064C488.068 378.49 487.498 377.682 487.217 376.759L470.491 321.895L460.117 277.572C459.778 276.123 459.734 274.622 459.987 273.156C460.24 271.69 460.786 270.291 461.591 269.04C462.396 267.79 463.445 266.714 464.674 265.877C465.904 265.04 467.289 264.458 468.747 264.167C470.206 263.877 471.708 263.882 473.165 264.184C474.621 264.485 476.002 265.077 477.225 265.923C478.449 266.769 479.489 267.852 480.285 269.109C481.081 270.365 481.616 271.769 481.859 273.237L488.696 314.609L506.327 369.356C506.667 370.411 506.606 371.554 506.155 372.567C505.704 373.579 504.894 374.389 503.882 374.841L493.361 379.554C492.783 379.813 492.156 379.947 491.522 379.947Z" fill="#009879"/>
<path id="Vector_19" d="M443.819 192.714C436.993 189.758 428.076 193.437 425.321 200.347C423.606 204.647 424.13 209.498 425.075 214.03C426.02 218.562 427.368 223.085 427.223 227.712C427.078 232.34 425.085 237.251 420.98 239.392C418.527 240.671 415.658 240.813 412.999 241.576C410.34 242.339 407.596 244.123 407.213 246.862C406.633 251.007 411.661 254.163 411.627 258.348C411.592 262.782 406.05 265.415 405.332 269.79C405.209 271.072 405.412 272.363 405.925 273.544C406.437 274.725 407.241 275.756 408.261 276.54C410.319 278.086 412.657 279.218 415.146 279.873C434.294 285.993 454.682 287.155 474.401 283.249C478.319 282.468 482.352 281.411 485.396 278.824C488.441 276.236 490.182 271.707 488.432 268.115C485.809 262.731 477.479 262.424 474.576 257.184C472.835 254.042 473.636 250.183 474.003 246.609C474.95 237.378 477.134 226.595 474.841 217.604C472.769 209.48 468.271 198.984 461.841 193.604C457.228 189.744 448.42 191.502 442.523 192.693L443.819 192.714Z" fill="#2F2E41"/>
<path id="Vector_20" d="M643.463 569.058H293.463C293.198 569.058 292.943 568.953 292.756 568.765C292.568 568.578 292.463 568.323 292.463 568.058C292.463 567.793 292.568 567.539 292.756 567.351C292.943 567.163 293.198 567.058 293.463 567.058H643.463C643.728 567.058 643.982 567.163 644.17 567.351C644.358 567.539 644.463 567.793 644.463 568.058C644.463 568.323 644.358 568.578 644.17 568.765C643.982 568.953 643.728 569.058 643.463 569.058Z" fill="#CCCCCC"/>
<path id="Vector_21" d="M606.609 546.287C592.189 565.598 562.257 567.63 562.257 567.63C562.257 567.63 555.704 538.353 570.123 519.042C584.543 499.731 614.475 497.699 614.475 497.699C614.475 497.699 621.029 526.976 606.609 546.287Z" fill="#E6E6E6"/>
<path id="Vector_22" d="M533.152 553.546C542.667 566.289 562.419 567.63 562.419 567.63C562.419 567.63 566.743 548.311 557.228 535.568C547.713 522.826 527.962 521.484 527.962 521.484C527.962 521.484 523.637 540.803 533.152 553.546Z" fill="#E6E6E6"/>
</g>
<defs>
<clipPath id="clip0">
<rect width="644.463" height="569.058" fill="white"/>
</clipPath>
</defs>
</svg>
