<svg width="340" height="290" viewBox="0 0 888 618" fill="none" xmlns="http://www.w3.org/2000/svg">
<rect width="888" height="618" fill="#E5E5E5"/>
<g id="undraw_Creation_process_ukbh 1" clip-path="url(#clip0)">
<path id="Vector" d="M888 0H0V377.208H888V0Z" fill="url(#paint0_linear)"/>
<path id="Vector_2" d="M879.32 2.66006H9.92529V372.702H879.32V2.66006Z" fill="#EEEEEE"/>
<path id="Vector_3" d="M588.643 139.966H542.513V184.629H588.643V139.966Z" fill="url(#paint1_linear)"/>
<path id="Vector_4" d="M587.848 140.736H543.307V183.86H587.848V140.736Z" fill="#F5F5F5"/>
<path id="Vector_5" d="M319.331 286.45H273.201V331.113H319.331V286.45Z" fill="url(#paint2_linear)"/>
<path id="Vector_6" d="M318.537 287.219H273.996V330.344H318.537V287.219Z" fill="#F5F5F5"/>
<path id="Vector_7" d="M721.645 129.466H675.515V174.129H721.645V129.466Z" fill="url(#paint3_linear)"/>
<path id="Vector_8" d="M720.851 130.235H676.31V173.36H720.851V130.235Z" fill="#F5F5F5"/>
<path id="Vector_9" d="M588.809 257.753H542.679V302.416H588.809V257.753Z" fill="url(#paint4_linear)"/>
<path id="Vector_10" d="M588.015 258.522H543.474V301.647H588.015V258.522Z" fill="#F5F5F5"/>
<path id="Vector_11" d="M295.842 33.0237H249.712V77.6863H295.842V33.0237Z" fill="url(#paint5_linear)"/>
<path id="Vector_12" d="M295.048 33.7927H250.506V76.9173H295.048V33.7927Z" fill="#F5F5F5"/>
<path id="Vector_13" d="M744.391 23.0154H698.261V67.6781H744.391V23.0154Z" fill="url(#paint6_linear)"/>
<path id="Vector_14" d="M743.597 23.7845H699.055V66.9091H743.597V23.7845Z" fill="#F5F5F5"/>
<path id="Vector_15" d="M853.571 184.056H807.441V228.719H853.571V184.056Z" fill="url(#paint7_linear)"/>
<path id="Vector_16" d="M852.777 184.826H808.236V227.95H852.777V184.826Z" fill="#F5F5F5"/>
<path id="Vector_17" d="M130.252 16.6466H84.1218V61.3093H130.252V16.6466Z" fill="url(#paint8_linear)"/>
<path id="Vector_18" d="M129.457 17.4157H84.9161V60.5402H129.457V17.4157Z" fill="#F5F5F5"/>
<path id="Vector_19" d="M650.672 56.1594H604.542V100.822H650.672V56.1594Z" fill="url(#paint9_linear)"/>
<path id="Vector_20" d="M649.877 56.9284H605.336V100.053H649.877V56.9284Z" fill="#DC143C"/>
<path id="Vector_21" d="M371.352 150.782H325.222V195.445H371.352V150.782Z" fill="url(#paint10_linear)"/>
<path id="Vector_22" d="M370.558 151.551H326.016V194.676H370.558V151.551Z" fill="#DC143C"/>
<path id="Vector_23" d="M526.934 199.913H480.804V244.576H526.934V199.913Z" fill="url(#paint11_linear)"/>
<path id="Vector_24" d="M526.14 200.683H481.598V243.807H526.14V200.683Z" fill="#DC143C"/>
<path id="Vector_25" d="M580.865 33.219H534.735V77.8817H580.865V33.219Z" fill="url(#paint12_linear)"/>
<path id="Vector_26" d="M580.07 33.9881H535.529V77.1126H580.07V33.9881Z" fill="#009879"/>
<path id="Vector_27" d="M661.84 228.834H615.71V273.496H661.84V228.834Z" fill="url(#paint13_linear)"/>
<path id="Vector_28" d="M661.046 229.603H616.505V272.727H661.046V229.603Z" fill="#009879"/>
<path id="Vector_29" d="M383.43 33.219H337.3V77.8817H383.43V33.219Z" fill="url(#paint14_linear)"/>
<path id="Vector_30" d="M382.636 33.9881H338.095V77.1126H382.636V33.9881Z" fill="#009879"/>
<path id="Vector_31" d="M444.389 277.055H398.259V321.718H444.389V277.055Z" fill="url(#paint15_linear)"/>
<path id="Vector_32" d="M443.595 277.824H399.054V320.949H443.595V277.824Z" fill="#009879"/>
<path id="Vector_33" d="M517.864 94.4656H471.734V139.128H517.864V94.4656Z" fill="url(#paint16_linear)"/>
<path id="Vector_34" d="M517.069 95.2347H472.528V138.359H517.069V95.2347Z" fill="#CD853F"/>
<path id="Vector_35" opacity="0.1" d="M290.405 112.662H244.275V157.325H290.405V112.662Z" fill="black"/>
<path id="Vector_36" d="M284.946 109.023H238.816V153.686H284.946V109.023Z" fill="url(#paint17_linear)"/>
<path id="Vector_37" d="M284.151 109.792H239.61V152.917H284.151V109.792Z" fill="#CD853F"/>
<path id="Vector_38" d="M853.593 66.2607H807.463V110.923H853.593V66.2607Z" fill="url(#paint18_linear)"/>
<path id="Vector_39" d="M852.799 67.0298H808.258V110.154H852.799V67.0298Z" fill="#CD853F"/>
<path id="Vector_40" d="M767.159 277.343H721.029V322.005H767.159V277.343Z" fill="url(#paint19_linear)"/>
<path id="Vector_41" d="M766.364 278.112H721.823V321.236H766.364V278.112Z" fill="#CD853F"/>
<path id="Vector_42" d="M113.125 185.611L108.132 200.26L159.439 198.421L139.731 186.596L113.125 185.611Z" fill="#EDEEF9"/>
<path id="Vector_43" d="M243.527 200.392L246.155 197.107L268.491 210.246V216.158L243.527 200.392Z" fill="#EDEEF9"/>
<path id="Vector_44" d="M188.545 172.762L208.545 151.762C208.545 151.762 230.545 118.762 246.545 127.762C262.545 136.762 223.545 157.762 223.545 157.762L203.545 190.762L188.545 172.762Z" fill="#EE8E9E"/>
<path id="Vector_45" d="M125.545 579.762C125.545 579.762 110.545 608.762 121.545 610.762C132.545 612.762 186.545 615.762 187.545 612.762C188.545 609.762 196.545 599.762 190.545 595.762C184.545 591.762 160.545 588.762 160.545 588.762L152.545 580.762L125.545 579.762Z" fill="#2E3E4E"/>
<path id="Vector_46" d="M117.545 296.762C117.545 296.762 85.545 336.762 111.545 377.762L117.545 446.762C117.545 446.762 106.545 541.762 120.545 573.762L122.545 584.762H157.545L148.545 500.762C148.545 500.762 149.545 490.762 152.545 488.762C155.545 486.762 204.545 378.762 204.545 378.762C204.545 378.762 196.545 363.762 199.545 360.762C202.545 357.762 196.545 297.762 193.545 295.762C190.545 293.762 117.545 296.762 117.545 296.762Z" fill="#2E3E4E"/>
<path id="Vector_47" d="M174.545 570.762L178.545 593.762L139.545 591.762L144.545 566.762L174.545 570.762Z" fill="#EE8E9E"/>
<path id="Vector_48" d="M167.545 162.762C184.114 162.762 197.545 149.331 197.545 132.762C197.545 116.194 184.114 102.762 167.545 102.762C150.977 102.762 137.545 116.194 137.545 132.762C137.545 149.331 150.977 162.762 167.545 162.762Z" fill="#EE8E9E"/>
<path id="Vector_49" d="M140.545 137.762L137.545 173.762L169.545 188.762C169.545 188.762 164.045 155.262 168.045 146.262L140.545 137.762Z" fill="#EE8E9E"/>
<path id="Vector_50" d="M173.545 186.762L170.545 174.762L129.545 159.762C129.545 159.762 125.545 159.762 126.545 166.762C127.545 173.762 127.545 172.762 127.545 172.762C127.545 172.762 113.545 178.762 112.545 188.762C111.545 198.762 95.545 201.762 96.545 216.762C97.545 231.762 102.545 239.762 102.545 239.762C102.545 239.762 97.545 251.762 105.545 258.762C105.545 258.762 113.545 272.762 109.545 282.762C105.545 292.762 100.545 309.762 111.545 306.762C122.545 303.762 198.545 298.762 198.545 298.762C198.545 298.762 209.545 257.762 197.545 242.762C197.545 242.762 197.545 233.762 188.545 215.762C179.545 197.762 173.545 186.762 173.545 186.762Z" fill="#009879"/>
<path id="Vector_51" d="M120.545 299.762C120.545 299.762 133.545 354.762 149.545 360.762C149.545 360.762 152.545 400.762 169.545 398.762C186.545 396.762 169.545 360.762 169.545 360.762L150.545 291.762L120.545 299.762Z" fill="#EE8E9E"/>
<path id="Vector_52" d="M171.545 189.762C171.545 189.762 186.545 165.762 190.545 169.762C194.545 173.762 214.545 185.762 213.545 193.762C212.545 201.762 203.545 201.762 203.545 201.762L182.545 217.762L171.545 189.762Z" fill="#009879"/>
<path id="Vector_53" d="M191.022 363L203.022 371.626L211.022 457C211.022 457 182.022 573 174.022 574C166.022 575 133.022 575 134.022 572C135.022 569 140.022 557 140.022 554C140.022 551 150.452 527.008 150.452 527.008L164.022 471L161.022 427L191.022 363Z" fill="#2E3E4E"/>
<path id="Vector_54" d="M177.545 585.762C177.545 585.762 135.545 572.762 133.545 575.762C131.545 578.762 118.205 608.999 136.875 612.381C155.545 615.762 222.545 621.762 222.545 612.762C222.545 603.762 220.545 597.762 214.545 597.762C208.545 597.762 181.545 584.762 179.545 581.762C177.545 578.762 177.545 585.762 177.545 585.762Z" fill="#2E3E4E"/>
<path id="Vector_55" d="M139.099 134.734C138.818 134.176 138.722 133.542 138.823 132.925C138.924 132.308 139.219 131.739 139.664 131.299C140.108 130.86 140.681 130.572 141.299 130.478C141.917 130.384 142.55 130.488 143.105 130.775L143.158 130.805C144.029 131.335 144.726 132.109 145.159 133.032C145.593 133.955 145.746 134.985 145.598 135.994C149.204 132.396 146.546 125.18 150.443 121.898C152.246 120.379 155.174 120.045 156.1 117.877C156.64 116.615 156.273 115.118 156.748 113.831C157.454 111.918 159.71 111.12 161.726 110.819C168.066 109.874 174.477 111.483 180.686 113.079C182.968 113.666 185.369 114.318 187.031 115.989C188.783 117.748 189.392 120.305 190.466 122.543C191.54 124.781 198.583 124.579 201.045 124.262C201.901 121.831 195.579 121.648 195.063 119.122C193.653 112.219 198.565 104.879 196.155 98.2578C194.703 94.2683 190.91 91.6274 187.091 89.7725C176.482 84.6726 164.371 83.6392 153.052 86.8679C151.9 87.1222 150.823 87.6428 149.908 88.388C148.455 89.7447 148.185 91.9231 147.217 93.6599C145.012 97.6169 139.782 98.5574 136.255 101.401C130.914 105.707 130.312 113.482 130.139 120.34C130.052 123.794 129.99 127.383 131.405 130.536C132.82 133.688 136.172 136.256 139.564 135.596C139.403 135.335 139.249 135.044 139.099 134.734Z" fill="#2E3E4E"/>
<path id="Vector_56" d="M144.316 199.507C140.445 196.821 135.793 195.493 131.087 195.732C126.381 195.971 121.887 197.764 118.308 200.829C111.416 206.685 104.002 215.077 104.545 223.762C105.545 239.762 111.545 305.762 119.545 306.762C127.545 307.762 156.545 299.762 156.545 294.762C156.545 289.762 149.545 283.762 149.545 283.762L158.044 232.767C159.116 226.584 158.441 220.225 156.095 214.406C153.749 208.586 149.825 203.537 144.765 199.826C144.616 199.719 144.467 199.613 144.316 199.507Z" fill="#009879"/>
</g>
<defs>
<linearGradient id="paint0_linear" x1="444" y1="377.208" x2="444" y2="0" gradientUnits="userSpaceOnUse">
<stop stop-color="#808080" stop-opacity="0.25"/>
<stop offset="0.53514" stop-color="#808080" stop-opacity="0.12"/>
<stop offset="1" stop-color="#808080" stop-opacity="0.1"/>
</linearGradient>
<linearGradient id="paint1_linear" x1="26632.5" y1="8386" x2="26632.5" y2="6391.25" gradientUnits="userSpaceOnUse">
<stop stop-color="#808080" stop-opacity="0.25"/>
<stop offset="0.53514" stop-color="#808080" stop-opacity="0.12"/>
<stop offset="1" stop-color="#808080" stop-opacity="0.1"/>
</linearGradient>
<linearGradient id="paint2_linear" x1="13939.9" y1="15074.8" x2="13939.9" y2="13080.1" gradientUnits="userSpaceOnUse">
<stop stop-color="#808080" stop-opacity="0.25"/>
<stop offset="0.53514" stop-color="#808080" stop-opacity="0.12"/>
<stop offset="1" stop-color="#808080" stop-opacity="0.1"/>
</linearGradient>
<linearGradient id="paint3_linear" x1="32900.9" y1="7906.54" x2="32900.9" y2="5911.78" gradientUnits="userSpaceOnUse">
<stop stop-color="#808080" stop-opacity="0.25"/>
<stop offset="0.53514" stop-color="#808080" stop-opacity="0.12"/>
<stop offset="1" stop-color="#808080" stop-opacity="0.1"/>
</linearGradient>
<linearGradient id="paint4_linear" x1="26640.4" y1="13764.5" x2="26640.4" y2="11769.7" gradientUnits="userSpaceOnUse">
<stop stop-color="#808080" stop-opacity="0.25"/>
<stop offset="0.53514" stop-color="#808080" stop-opacity="0.12"/>
<stop offset="1" stop-color="#808080" stop-opacity="0.1"/>
</linearGradient>
<linearGradient id="paint5_linear" x1="12832.9" y1="3502.71" x2="12832.9" y2="1507.95" gradientUnits="userSpaceOnUse">
<stop stop-color="#808080" stop-opacity="0.25"/>
<stop offset="0.53514" stop-color="#808080" stop-opacity="0.12"/>
<stop offset="1" stop-color="#808080" stop-opacity="0.1"/>
</linearGradient>
<linearGradient id="paint6_linear" x1="33972.9" y1="3045.7" x2="33972.9" y2="1050.95" gradientUnits="userSpaceOnUse">
<stop stop-color="#808080" stop-opacity="0.25"/>
<stop offset="0.53514" stop-color="#808080" stop-opacity="0.12"/>
<stop offset="1" stop-color="#808080" stop-opacity="0.1"/>
</linearGradient>
<linearGradient id="paint7_linear" x1="39118.6" y1="10399.3" x2="39118.6" y2="8404.51" gradientUnits="userSpaceOnUse">
<stop stop-color="#808080" stop-opacity="0.25"/>
<stop offset="0.53514" stop-color="#808080" stop-opacity="0.12"/>
<stop offset="1" stop-color="#808080" stop-opacity="0.1"/>
</linearGradient>
<linearGradient id="paint8_linear" x1="5028.63" y1="2754.89" x2="5028.63" y2="760.129" gradientUnits="userSpaceOnUse">
<stop stop-color="#808080" stop-opacity="0.25"/>
<stop offset="0.53514" stop-color="#808080" stop-opacity="0.12"/>
<stop offset="1" stop-color="#808080" stop-opacity="0.1"/>
</linearGradient>
<linearGradient id="paint9_linear" x1="29556" y1="4559.14" x2="29556" y2="2564.39" gradientUnits="userSpaceOnUse">
<stop stop-color="#808080" stop-opacity="0.25"/>
<stop offset="0.53514" stop-color="#808080" stop-opacity="0.12"/>
<stop offset="1" stop-color="#808080" stop-opacity="0.1"/>
</linearGradient>
<linearGradient id="paint10_linear" x1="16391.7" y1="8879.88" x2="16391.7" y2="6885.13" gradientUnits="userSpaceOnUse">
<stop stop-color="#808080" stop-opacity="0.25"/>
<stop offset="0.53514" stop-color="#808080" stop-opacity="0.12"/>
<stop offset="1" stop-color="#808080" stop-opacity="0.1"/>
</linearGradient>
<linearGradient id="paint11_linear" x1="23724.2" y1="11123.3" x2="23724.2" y2="9128.59" gradientUnits="userSpaceOnUse">
<stop stop-color="#808080" stop-opacity="0.25"/>
<stop offset="0.53514" stop-color="#808080" stop-opacity="0.12"/>
<stop offset="1" stop-color="#808080" stop-opacity="0.1"/>
</linearGradient>
<linearGradient id="paint12_linear" x1="26266" y1="3511.63" x2="26266" y2="1516.87" gradientUnits="userSpaceOnUse">
<stop stop-color="#808080" stop-opacity="0.25"/>
<stop offset="0.53514" stop-color="#808080" stop-opacity="0.12"/>
<stop offset="1" stop-color="#808080" stop-opacity="0.1"/>
</linearGradient>
<linearGradient id="paint13_linear" x1="30082.3" y1="12443.9" x2="30082.3" y2="10449.2" gradientUnits="userSpaceOnUse">
<stop stop-color="#808080" stop-opacity="0.25"/>
<stop offset="0.53514" stop-color="#808080" stop-opacity="0.12"/>
<stop offset="1" stop-color="#808080" stop-opacity="0.1"/>
</linearGradient>
<linearGradient id="paint14_linear" x1="16960.9" y1="3511.63" x2="16960.9" y2="1516.87" gradientUnits="userSpaceOnUse">
<stop stop-color="#808080" stop-opacity="0.25"/>
<stop offset="0.53514" stop-color="#808080" stop-opacity="0.12"/>
<stop offset="1" stop-color="#808080" stop-opacity="0.1"/>
</linearGradient>
<linearGradient id="paint15_linear" x1="19833.9" y1="14645.8" x2="19833.9" y2="12651.1" gradientUnits="userSpaceOnUse">
<stop stop-color="#808080" stop-opacity="0.25"/>
<stop offset="0.53514" stop-color="#808080" stop-opacity="0.12"/>
<stop offset="1" stop-color="#808080" stop-opacity="0.1"/>
</linearGradient>
<linearGradient id="paint16_linear" x1="23296.7" y1="6308.31" x2="23296.7" y2="4313.56" gradientUnits="userSpaceOnUse">
<stop stop-color="#808080" stop-opacity="0.25"/>
<stop offset="0.53514" stop-color="#808080" stop-opacity="0.12"/>
<stop offset="1" stop-color="#808080" stop-opacity="0.1"/>
</linearGradient>
<linearGradient id="paint17_linear" x1="12319.3" y1="6973.04" x2="12319.3" y2="4978.29" gradientUnits="userSpaceOnUse">
<stop stop-color="#808080" stop-opacity="0.25"/>
<stop offset="0.53514" stop-color="#808080" stop-opacity="0.12"/>
<stop offset="1" stop-color="#808080" stop-opacity="0.1"/>
</linearGradient>
<linearGradient id="paint18_linear" x1="39119.6" y1="5020.4" x2="39119.6" y2="3025.64" gradientUnits="userSpaceOnUse">
<stop stop-color="#808080" stop-opacity="0.25"/>
<stop offset="0.53514" stop-color="#808080" stop-opacity="0.12"/>
<stop offset="1" stop-color="#808080" stop-opacity="0.1"/>
</linearGradient>
<linearGradient id="paint19_linear" x1="35046" y1="14659" x2="35046" y2="12664.2" gradientUnits="userSpaceOnUse">
<stop stop-color="#808080" stop-opacity="0.25"/>
<stop offset="0.53514" stop-color="#808080" stop-opacity="0.12"/>
<stop offset="1" stop-color="#808080" stop-opacity="0.1"/>
</linearGradient>
<clipPath id="clip0">
<rect width="888" height="617.493" fill="white"/>
</clipPath>
</defs>
</svg>
