<svg aria-hidden="true" style="position: absolute; width: 0; height: 0; overflow: hidden;" version="1.1" xmlns="http://www.w3.org/2000/svg" xmlns:xlink="http://www.w3.org/1999/xlink">
<defs>
<symbol id="icon-add-solid" viewBox="0 0 20 20">
<path d="M11 9v-4h-2v4h-4v2h4v4h2v-4h4v-2h-4zM10 20c-5.523 0-10-4.477-10-10s4.477-10 10-10v0c5.523 0 10 4.477 10 10s-4.477 10-10 10v0z"></path>
</symbol>
<symbol id="icon-mail" viewBox="0 0 20 20">
<path d="M1.574 5.286c0.488 0.262 7.248 3.894 7.5 4.029s0.578 0.199 0.906 0.199c0.328 0 0.654-0.064 0.906-0.199s7.012-3.767 7.5-4.029c0.489-0.263 0.951-1.286 0.054-1.286h-16.919c-0.897 0-0.435 1.023 0.053 1.286zM18.613 7.489c-0.555 0.289-7.387 3.849-7.727 4.027s-0.578 0.199-0.906 0.199-0.566-0.021-0.906-0.199-7.133-3.739-7.688-4.028c-0.39-0.204-0.386 0.035-0.386 0.219s0 7.293 0 7.293c0 0.42 0.566 1 1 1h16c0.434 0 1-0.58 1-1 0 0 0-7.108 0-7.292s0.004-0.423-0.387-0.219z"></path>
</symbol>
<symbol id="icon-search" viewBox="0 0 32 32">
<path d="M19.427 20.427c-1.39 0.99-3.090 1.573-4.927 1.573-4.694 0-8.5-3.806-8.5-8.5s3.806-8.5 8.5-8.5c4.694 0 8.5 3.806 8.5 8.5 0 2.347-0.951 4.472-2.49 6.010l5.997 5.997c0.275 0.275 0.268 0.716-0.008 0.992-0.278 0.278-0.72 0.28-0.992 0.008l-6.081-6.081zM14.5 21c4.142 0 7.5-3.358 7.5-7.5s-3.358-7.5-7.5-7.5c-4.142 0-7.5 3.358-7.5 7.5s3.358 7.5 7.5 7.5v0z"></path>
</symbol>
<symbol id="icon-mail-envelope-open" viewBox="0 0 32 32">
<path d="M11.293 19l-3.293-2.8v-8.198c0-0.558 0.448-1.002 1-1.002h15c0.545 0 1 0.449 1 1.002v8.198l-3.333 2.8h-10.374zM12.469 20l1.783 1.516h4.42l1.805-1.516h-8.007zM22.185 20.127l-2.185 1.873 5.923 5.077-0.808 0.808-5.996-5.139-5.223 0.023-0.021-0.018-5.99 5.135-0.808-0.808 5.923-5.077-2.185-1.873-3.815-3.227v-5.54l-3 2.64v14.006c0 1.101 0.89 1.994 2.004 1.994h20.993c1.107 0 2.004-0.895 2.004-1.994v-14.006l-3-2.64v5.54l-3.815 3.227zM19.909 6l-3.409-3-3.409 3h6.818zM10 10v1h13v-1h-13zM10 13v1h13v-1h-13zM10 16v1h13v-1h-13z"></path>
</symbol>
<symbol id="icon-calendar" viewBox="0 0 32 32">
<path d="M27 31h-22c-1.104 0-2-0.896-2-2v-22c0-1.105 0.896-2 2-2h2v1c0 1.657 1.343 3 3 3s3-1.343 3-3v-1h6v1c0 1.657 1.344 3 3 3s3-1.343 3-3v-1h2c1.104 0 2 0.895 2 2v22c0 1.104-0.896 2-2 2zM27 12h-22v17h22v-17zM10 17h-3v-3h3v3zM10 22h-3v-3h3v3zM10 27h-3v-3h3v3zM15 17h-3v-3h3v3zM15 22h-3v-3h3v3zM15 27h-3v-3h3v3zM20 17h-3v-3h3v3zM20 22h-3v-3h3v3zM20 27h-3v-3h3v3zM25 17h-3v-3h3v3zM25 22h-3v-3h3v3zM25 27h-3v-3h3v3zM21.969 8c-1.088 0-1.969-0.882-1.969-1.969v-2.062c0-1.088 0.881-1.969 1.969-1.969s1.969 0.881 1.969 1.969v2.062c0 1.087-0.881 1.969-1.969 1.969zM9.969 8c-1.088 0-1.969-0.882-1.969-1.969v-2.062c0-1.088 0.881-1.969 1.969-1.969s1.969 0.881 1.969 1.969v2.062c0 1.087-0.882 1.969-1.969 1.969z"></path>
</symbol>
<symbol id="icon-pencil" viewBox="0 0 32 32">
<path d="M5.582 20.054l14.886-14.886 6.369 6.369-14.886 14.886-6.369-6.369zM21.153 8.758l-0.698-0.697-11.981 11.98 0.698 0.698 11.981-11.981zM22.549 10.154l-0.698-0.698-11.981 11.982 0.697 0.697 11.982-11.981zM23.945 11.55l-0.698-0.698-11.981 11.981 0.698 0.698 11.981-11.981zM23.319 2.356c0.781-0.783 2.045-0.788 2.82-0.013l3.512 3.512c0.775 0.775 0.77 2.038-0.012 2.82l-2.17 2.17-6.32-6.32 2.17-2.169zM5.092 20.883l6.030 6.030-5.284 1.877-2.623-2.623 1.877-5.284zM4.837 29.117l-3.066 1.117 1.117-3.066 1.949 1.949z"></path>
</symbol>
<symbol id="icon-book" viewBox="0 0 32 32">
<path d="M15 25.875v-19.625c0 0-2.688-2.25-6.5-2.25s-6.5 2-6.5 2v19.875c0 0 2.688-1.938 6.5-1.938s6.5 1.938 6.5 1.938zM29 25.875v-19.625c0 0-2.688-2.25-6.5-2.25s-6.5 2-6.5 2v19.875c0 0 2.688-1.938 6.5-1.938s6.5 1.938 6.5 1.938zM31 8h-1v19h-12v1h-5v-1h-12v-19h-1v20h12v1h7.062l-0.062-1h12v-20z"></path>
</symbol>
<symbol id="icon-megaphone" viewBox="0 0 32 32">
<path d="M28.075 18.121v7.896c0 0.552-0.312 0.999-0.998 0.999-0.166 0-0.577-0.354-1.082-0.887v-21.194c0.505-0.533 0.916-0.887 1.082-0.887 0.748 0 0.998 0.447 0.998 0.998v8.096c1.353 0.038 2.613 1.135 2.613 2.489 0 1.355-1.26 2.452-2.613 2.49zM12.015 20.046c0.062 0 0-9.029 0-9.029 6.857 0 10.922-3.010 13.064-5.074v19.177c-2.142-2.063-6.207-5.074-13.064-5.074zM8.021 27.952l-1.997-7.927h-1.998c0 0-0.594-1.348-0.864-2.996-0.509 0-0.954 0-1.134 0-0.551 0-0.998-0.447-0.998-0.999v-0.998c0-0.552 0.447-0.999 0.998-0.999 0.18 0 0.625 0 1.134 0 0.271-1.648 0.864-2.995 0.864-2.995h6.99v8.987h-1.997l0.252 0.998h0.997l0.499 1.998h-0.994l1.243 4.931h-2.995z"></path>
</symbol>
<symbol id="icon-lock" viewBox="0 0 32 32">
<path d="M25 13v-4c0-4.971-4.029-9-9-9s-9 4.029-9 9v4c-1.657 0-3 1.343-3 3v7c0 4.971 4.029 9 9 9h6c4.971 0 9-4.029 9-9v-7c0-1.658-1.344-3-3-3zM9 9c0-3.866 3.134-7 7-7s7 3.134 7 7v4h-2v-3.998c0-2.762-2.238-5-5-5s-5 2.238-5 5v3.998h-2v-4zM20 9v4h-8v-4c0-2.209 1.791-4 4-4s4 1.791 4 4zM26 19v4c0 3.859-3.141 7-7 7h-6c-3.859 0-7-3.141-7-7v-7c0-0.552 0.448-1 1-1 0.667 0 1.333 0 2 0h14c0.666 0 1.332 0 2 0 0.551 0 1 0.448 1 1v3zM16 19c1.104 0 2 0.895 2 2 0 0.609-0.328 1.768-0.666 2.682-0.273 0.738-0.552 1.316-1.334 1.316-0.719 0-1.061-0.584-1.333-1.326-0.334-0.912-0.667-2.065-0.667-2.672 0-1.105 0.896-2 2-2z"></path>
</symbol>
<symbol id="icon-check" viewBox="0 0 24 24">
<path d="M9 16.172l10.594-10.594 1.406 1.406-12 12-5.578-5.578 1.406-1.406z"></path>
</symbol>
<symbol id="icon-speaker_notes" viewBox="0 0 24 24">
<path d="M18 8.016v-2.016h-8.016v2.016h8.016zM18 11.016v-2.016h-8.016v2.016h8.016zM15 14.016v-2.016h-5.016v2.016h5.016zM8.016 8.016v-2.016h-2.016v2.016h2.016zM8.016 11.016v-2.016h-2.016v2.016h2.016zM8.016 14.016v-2.016h-2.016v2.016h2.016zM20.016 2.016q0.797 0 1.383 0.586t0.586 1.383v12q0 0.797-0.586 1.406t-1.383 0.609h-14.016l-3.984 3.984v-18q0-0.797 0.586-1.383t1.383-0.586h16.031z"></path>
</symbol>
<symbol id="icon-clear" viewBox="0 0 24 24">
<path d="M18.984 6.422l-5.578 5.578 5.578 5.578-1.406 1.406-5.578-5.578-5.578 5.578-1.406-1.406 5.578-5.578-5.578-5.578 1.406-1.406 5.578 5.578 5.578-5.578z"></path>
</symbol>
<symbol id="icon-sort-amount-desc" viewBox="0 0 28 28">
<path d="M19 24.5v3c0 0.281-0.219 0.5-0.5 0.5h-4c-0.281 0-0.5-0.219-0.5-0.5v-3c0-0.281 0.219-0.5 0.5-0.5h4c0.281 0 0.5 0.219 0.5 0.5zM11.5 22.5c0 0.141-0.063 0.266-0.156 0.375l-4.984 4.984c-0.109 0.094-0.234 0.141-0.359 0.141s-0.25-0.047-0.359-0.141l-5-5c-0.141-0.156-0.187-0.359-0.109-0.547s0.266-0.313 0.469-0.313h3v-21.5c0-0.281 0.219-0.5 0.5-0.5h3c0.281 0 0.5 0.219 0.5 0.5v21.5h3c0.281 0 0.5 0.219 0.5 0.5zM22 16.5v3c0 0.281-0.219 0.5-0.5 0.5h-7c-0.281 0-0.5-0.219-0.5-0.5v-3c0-0.281 0.219-0.5 0.5-0.5h7c0.281 0 0.5 0.219 0.5 0.5zM25 8.5v3c0 0.281-0.219 0.5-0.5 0.5h-10c-0.281 0-0.5-0.219-0.5-0.5v-3c0-0.281 0.219-0.5 0.5-0.5h10c0.281 0 0.5 0.219 0.5 0.5zM28 0.5v3c0 0.281-0.219 0.5-0.5 0.5h-13c-0.281 0-0.5-0.219-0.5-0.5v-3c0-0.281 0.219-0.5 0.5-0.5h13c0.281 0 0.5 0.219 0.5 0.5z"></path>
</symbol>
<symbol id="icon-sort-amount-asc" viewBox="0 0 28 28">
<path d="M11.5 22.5c0 0.141-0.063 0.266-0.156 0.375l-4.984 4.984c-0.109 0.094-0.234 0.141-0.359 0.141s-0.25-0.047-0.359-0.141l-5-5c-0.141-0.156-0.187-0.359-0.109-0.547s0.266-0.313 0.469-0.313h3v-21.5c0-0.281 0.219-0.5 0.5-0.5h3c0.281 0 0.5 0.219 0.5 0.5v21.5h3c0.281 0 0.5 0.219 0.5 0.5zM28 24.5v3c0 0.281-0.219 0.5-0.5 0.5h-13c-0.281 0-0.5-0.219-0.5-0.5v-3c0-0.281 0.219-0.5 0.5-0.5h13c0.281 0 0.5 0.219 0.5 0.5zM25 16.5v3c0 0.281-0.219 0.5-0.5 0.5h-10c-0.281 0-0.5-0.219-0.5-0.5v-3c0-0.281 0.219-0.5 0.5-0.5h10c0.281 0 0.5 0.219 0.5 0.5zM22 8.5v3c0 0.281-0.219 0.5-0.5 0.5h-7c-0.281 0-0.5-0.219-0.5-0.5v-3c0-0.281 0.219-0.5 0.5-0.5h7c0.281 0 0.5 0.219 0.5 0.5zM19 0.5v3c0 0.281-0.219 0.5-0.5 0.5h-4c-0.281 0-0.5-0.219-0.5-0.5v-3c0-0.281 0.219-0.5 0.5-0.5h4c0.281 0 0.5 0.219 0.5 0.5z"></path>
</symbol>
<symbol id="icon-user" viewBox="0 0 20 28">
<path d="M20 21.859c0 2.281-1.5 4.141-3.328 4.141h-13.344c-1.828 0-3.328-1.859-3.328-4.141 0-4.109 1.016-8.859 5.109-8.859 1.266 1.234 2.984 2 4.891 2s3.625-0.766 4.891-2c4.094 0 5.109 4.75 5.109 8.859zM16 8c0 3.313-2.688 6-6 6s-6-2.688-6-6 2.688-6 6-6 6 2.688 6 6z"></path>
</symbol>
<symbol id="icon-group" viewBox="0 0 30 28">
<path d="M9.266 14c-1.625 0.047-3.094 0.75-4.141 2h-2.094c-1.563 0-3.031-0.75-3.031-2.484 0-1.266-0.047-5.516 1.937-5.516 0.328 0 1.953 1.328 4.062 1.328 0.719 0 1.406-0.125 2.078-0.359-0.047 0.344-0.078 0.688-0.078 1.031 0 1.422 0.453 2.828 1.266 4zM26 23.953c0 2.531-1.672 4.047-4.172 4.047h-13.656c-2.5 0-4.172-1.516-4.172-4.047 0-3.531 0.828-8.953 5.406-8.953 0.531 0 2.469 2.172 5.594 2.172s5.063-2.172 5.594-2.172c4.578 0 5.406 5.422 5.406 8.953zM10 4c0 2.203-1.797 4-4 4s-4-1.797-4-4 1.797-4 4-4 4 1.797 4 4zM21 10c0 3.313-2.688 6-6 6s-6-2.688-6-6 2.688-6 6-6 6 2.688 6 6zM30 13.516c0 1.734-1.469 2.484-3.031 2.484h-2.094c-1.047-1.25-2.516-1.953-4.141-2 0.812-1.172 1.266-2.578 1.266-4 0-0.344-0.031-0.688-0.078-1.031 0.672 0.234 1.359 0.359 2.078 0.359 2.109 0 3.734-1.328 4.062-1.328 1.984 0 1.937 4.25 1.937 5.516zM28 4c0 2.203-1.797 4-4 4s-4-1.797-4-4 1.797-4 4-4 4 1.797 4 4z"></path>
</symbol>
<symbol id="icon-home3" viewBox="0 0 32 32">
<path d="M32 19l-6-6v-9h-4v5l-6-6-16 16v1h4v10h10v-6h4v6h10v-10h4z"></path>
</symbol>
<symbol id="icon-phone" viewBox="0 0 32 32">
<path d="M22 20c-2 2-2 4-4 4s-4-2-6-4-4-4-4-6 2-2 4-4-4-8-6-8-6 6-6 6c0 4 4.109 12.109 8 16s12 8 16 8c0 0 6-4 6-6s-6-8-8-6z"></path>
</symbol>
<symbol id="icon-location2" viewBox="0 0 32 32">
<path d="M16 0c-5.523 0-10 4.477-10 10 0 10 10 22 10 22s10-12 10-22c0-5.523-4.477-10-10-10zM16 16.125c-3.383 0-6.125-2.742-6.125-6.125s2.742-6.125 6.125-6.125 6.125 2.742 6.125 6.125-2.742 6.125-6.125 6.125zM12.125 10c0-2.14 1.735-3.875 3.875-3.875s3.875 1.735 3.875 3.875c0 2.14-1.735 3.875-3.875 3.875s-3.875-1.735-3.875-3.875z"></path>
</symbol>
<symbol id="icon-user1" viewBox="0 0 32 32">
<path d="M18 22.082v-1.649c2.203-1.241 4-4.337 4-7.432 0-4.971 0-9-6-9s-6 4.029-6 9c0 3.096 1.797 6.191 4 7.432v1.649c-6.784 0.555-12 3.888-12 7.918h28c0-4.030-5.216-7.364-12-7.918z"></path>
</symbol>
<symbol id="icon-user-tie" viewBox="0 0 32 32">
<path d="M10 6c0-3.314 2.686-6 6-6s6 2.686 6 6c0 3.314-2.686 6-6 6s-6-2.686-6-6zM24.002 14h-1.107l-6.222 12.633 2.327-11.633-3-3-3 3 2.327 11.633-6.222-12.633h-1.107c-3.998 0-3.998 2.687-3.998 6v10h24v-10c0-3.313 0-6-3.998-6z"></path>
</symbol>
<symbol id="icon-bin" viewBox="0 0 32 32">
<path d="M4 10v20c0 1.1 0.9 2 2 2h18c1.1 0 2-0.9 2-2v-20h-22zM10 28h-2v-14h2v14zM14 28h-2v-14h2v14zM18 28h-2v-14h2v14zM22 28h-2v-14h2v14z"></path>
<path d="M26.5 4h-6.5v-2.5c0-0.825-0.675-1.5-1.5-1.5h-7c-0.825 0-1.5 0.675-1.5 1.5v2.5h-6.5c-0.825 0-1.5 0.675-1.5 1.5v2.5h26v-2.5c0-0.825-0.675-1.5-1.5-1.5zM18 4h-6v-1.975h6v1.975z"></path>
</symbol>
<symbol id="icon-eye" viewBox="0 0 32 32">
<path d="M16 6c-6.979 0-13.028 4.064-16 10 2.972 5.936 9.021 10 16 10s13.027-4.064 16-10c-2.972-5.936-9.021-10-16-10zM23.889 11.303c1.88 1.199 3.473 2.805 4.67 4.697-1.197 1.891-2.79 3.498-4.67 4.697-2.362 1.507-5.090 2.303-7.889 2.303s-5.527-0.796-7.889-2.303c-1.88-1.199-3.473-2.805-4.67-4.697 1.197-1.891 2.79-3.498 4.67-4.697 0.122-0.078 0.246-0.154 0.371-0.228-0.311 0.854-0.482 1.776-0.482 2.737 0 4.418 3.582 8 8 8s8-3.582 8-8c0-0.962-0.17-1.883-0.482-2.737 0.124 0.074 0.248 0.15 0.371 0.228v0zM16 13c0 1.657-1.343 3-3 3s-3-1.343-3-3 1.343-3 3-3 3 1.343 3 3z"></path>
</symbol>
<symbol id="icon-cancel-circle" viewBox="0 0 32 32">
<path d="M16 0c-8.837 0-16 7.163-16 16s7.163 16 16 16 16-7.163 16-16-7.163-16-16-16zM16 29c-7.18 0-13-5.82-13-13s5.82-13 13-13 13 5.82 13 13-5.82 13-13 13z"></path>
<path d="M21 8l-5 5-5-5-3 3 5 5-5 5 3 3 5-5 5 5 3-3-5-5 5-5z"></path>
</symbol>
<symbol id="icon-enter" viewBox="0 0 32 32">
<path d="M12 16h-10v-4h10v-4l6 6-6 6zM32 0v26l-12 6v-6h-12v-8h2v6h10v-18l8-4h-18v8h-2v-10z"></path>
</symbol>
<symbol id="icon-exit" viewBox="0 0 32 32">
<path d="M24 20v-4h-10v-4h10v-4l6 6zM22 18v8h-10v6l-12-6v-26h22v10h-2v-8h-16l8 4v18h8v-6z"></path>
</symbol>
</defs>
</svg>
